name rise38.3101peak57.3503fall81.6963.mot
datacolumns 19
datarows 17
range 11.00496500000000 11.03163100000000
endheader
time	ground_force1_vx	ground_force1_vy	ground_force1_vz	ground_force1_px	ground_force1_py	ground_force1_pz	ground_force2_vx	ground_force2_vy	ground_force2_vz	ground_force2_px	ground_force2_py	ground_force2_pz	ground_torque1_x	ground_torque1_y	ground_torque1_z	ground_torque2_x	ground_torque2_y	ground_torque2_z	
11.00496500000000	-13.23120300000000	42.79363100000000	-14.33638200000000	0.37396900000000	0.00000000000000	0.05405500000000	-60.59441400000000	809.13857900000005	-52.55769300000000	0.13614800000000	0.00000000000000	-0.11845000000000	0.00000000000000	-10.78405100000000	0.00000000000000	0.00000000000000	-27.55984700000000	0.00000000000000	
11.00663300000000	-14.31622200000000	48.59245900000000	-15.86384100000000	0.37693500000000	0.00000000000000	0.05474300000000	-61.10337900000000	806.75350000000003	-51.99307300000000	0.13562400000000	0.00000000000000	-0.11833900000000	0.00000000000000	-12.00149200000000	0.00000000000000	0.00000000000000	-27.49207300000000	0.00000000000000	
11.00830000000000	-15.18074900000000	54.25745800000000	-17.23519400000000	0.37972700000000	0.00000000000000	0.05541500000000	-61.62529700000000	804.26809300000002	-51.41453900000000	0.13510400000000	0.00000000000000	-0.11822500000000	0.00000000000000	-13.11366900000000	0.00000000000000	0.00000000000000	-27.42642000000000	0.00000000000000	
11.00996500000000	-15.80672100000000	59.73111900000000	-18.42849400000000	0.38235900000000	0.00000000000000	0.05607200000000	-62.16063900000000	801.68113800000003	-50.82235000000000	0.13458500000000	0.00000000000000	-0.11810700000000	0.00000000000000	-14.10260300000000	0.00000000000000	0.00000000000000	-27.36306000000000	0.00000000000000	
11.01163100000000	-16.18840000000000	64.98168400000000	-19.43279000000000	0.38484100000000	0.00000000000000	0.05671600000000	-62.70980100000000	798.99130500000001	-50.21675600000000	0.13406900000000	0.00000000000000	-0.11798500000000	0.00000000000000	-14.95846800000000	0.00000000000000	0.00000000000000	-27.30214300000000	0.00000000000000	
11.01329500000000	-16.33124200000000	70.00214300000000	-20.24739000000000	0.38718400000000	0.00000000000000	0.05734800000000	-63.27309500000000	796.19715299999996	-49.59799800000000	0.13355400000000	0.00000000000000	-0.11785900000000	0.00000000000000	-15.67917300000000	0.00000000000000	0.00000000000000	-27.24379500000000	0.00000000000000	
11.01496400000000	-16.25004300000000	74.80736600000000	-20.88041500000000	0.38939600000000	0.00000000000000	0.05796900000000	-63.85074400000000	793.29712900000004	-48.96631100000000	0.13303900000000	0.00000000000000	-0.11773000000000	0.00000000000000	-16.26937200000000	0.00000000000000	0.00000000000000	-27.18811900000000	0.00000000000000	
11.01662800000000	-15.96662100000000	79.42991400000000	-21.34686800000000	0.39148500000000	0.00000000000000	0.05858000000000	-64.44287600000000	790.28956900000003	-48.32192100000000	0.13252500000000	0.00000000000000	-0.11759600000000	0.00000000000000	-16.73908100000000	0.00000000000000	0.00000000000000	-27.13519000000000	0.00000000000000	
11.01829600000000	-15.50732400000000	83.91512100000000	-21.66647700000000	0.39345900000000	0.00000000000000	0.05918300000000	-65.04951600000000	787.17269599999997	-47.66504700000000	0.13201000000000	0.00000000000000	-0.11746000000000	0.00000000000000	-17.10209800000000	0.00000000000000	0.00000000000000	-27.08505700000000	0.00000000000000	
11.01996200000000	-14.90058800000000	88.31597800000000	-21.86152400000000	0.39532500000000	0.00000000000000	0.05977700000000	-65.67058500000000	783.94462599999997	-46.99590400000000	0.13149300000000	0.00000000000000	-0.11731900000000	0.00000000000000	-17.37437900000000	0.00000000000000	0.00000000000000	-27.03773900000000	0.00000000000000	
11.02162800000000	-14.17474400000000	92.68825900000000	-21.95484300000000	0.39708800000000	0.00000000000000	0.06036300000000	-66.30589100000000	780.60336199999995	-46.31469900000000	0.13097500000000	0.00000000000000	-0.11717500000000	0.00000000000000	-17.57251500000000	0.00000000000000	0.00000000000000	-26.99322600000000	0.00000000000000	
11.02331400000000	-13.35619200000000	97.08624300000000	-21.96811000000000	0.39875400000000	0.00000000000000	0.06094200000000	-66.95512600000001	777.14680799999996	-45.62164000000000	0.13045400000000	0.00000000000000	-0.11702800000000	0.00000000000000	-17.71242300000000	0.00000000000000	0.00000000000000	-26.95148000000000	0.00000000000000	
11.02496500000000	-12.46803900000000	101.55926700000001	-21.92051400000000	0.40032900000000	0.00000000000000	0.06151300000000	-67.61786499999999	773.57276400000001	-44.91692800000000	0.12993000000000	0.00000000000000	-0.11687700000000	0.00000000000000	-17.80830300000000	0.00000000000000	0.00000000000000	-26.91242700000000	0.00000000000000	
11.02663300000000	-11.52921000000000	106.14922100000000	-21.82785300000000	0.40181700000000	0.00000000000000	0.06207700000000	-68.29355700000001	769.87893799999995	-44.20076600000000	0.12940300000000	0.00000000000000	-0.11672300000000	0.00000000000000	-17.87191700000000	0.00000000000000	0.00000000000000	-26.87596700000000	0.00000000000000	
11.02829300000000	-10.55402400000000	110.88902500000000	-21.70203200000000	0.40322300000000	0.00000000000000	0.06263400000000	-68.98152300000000	766.06294800000001	-43.47335600000000	0.12887300000000	0.00000000000000	-0.11656600000000	0.00000000000000	-17.91217100000000	0.00000000000000	0.00000000000000	-26.84196200000000	0.00000000000000	
11.02996100000000	-9.55218800000000	115.80200600000001	-21.55094700000000	0.40455100000000	0.00000000000000	0.06318300000000	-69.68095900000000	762.12233000000003	-42.73490500000000	0.12833700000000	0.00000000000000	-0.11640500000000	0.00000000000000	-17.93498900000000	0.00000000000000	0.00000000000000	-26.81024600000000	0.00000000000000	
11.03163100000000	-8.52912200000000	120.90207800000000	-21.37868200000000	0.40580500000000	0.00000000000000	0.06372600000000	-70.39092700000000	758.05454999999995	-41.98562000000000	0.12779700000000	0.00000000000000	-0.11624200000000	0.00000000000000	-17.94343600000000	0.00000000000000	0.00000000000000	-26.78061700000000	0.00000000000000	
